<?xml version="1.0" encoding="utf-8"?><!-- Generator: Adobe Illustrator 23.1.0, SVG Export Plug-In . SVG Version: 6.00 Build 0)  --><svg version="1.1" id="Layer_1" xmlns="http://www.w3.org/2000/svg" xmlns:xlink="http://www.w3.org/1999/xlink" x="0px" y="0px" viewBox="0 0 3300 660" style="enable-background:new 0 0 3300 663;" xml:space="preserve"><style type="text/css">.st0{fill:none;stroke:#020202;}</style><polyline class="st0" points="80.26,60.2 200.13,121.2 303.79,216.95 280.5,321.2 380.23,422.65 500.23,340.65 540.23,240.65 480.23,140.65 605.49,70.76 705.23,170.65 775.85,280.01 740.49,380.99 880.23,428.65 945.15,335.15 990.13,230.67 1090.13,143.67 1180.26,60.2 1300.13,121.2 1403.79,216.95 1380.5,321.2 1480.23,422.65 1600.23,340.65 1640.23,240.65 1580.23,140.65 1705.49,70.76 1805.23,170.65 1880.85,290.01 1840.49,381.99 2000.23,428.65 2045.15,335.15 2090.13,230.67 2190.13,143.67 2295.26,240.2"/></svg>