<?xml version="1.0" encoding="utf-8"?><!-- Generator: Adobe Illustrator 23.1.0, SVG Export Plug-In . SVG Version: 6.00 Build 0)  --><svg version="1.1" id="Layer_1" xmlns="http://www.w3.org/2000/svg" xmlns:xlink="http://www.w3.org/1999/xlink" x="0px" y="0px" viewBox="0 0 3300 660" style="enable-background:new 0 0 3300 663;" xml:space="preserve"><style type="text/css">.st0{fill:none;stroke:#020202;}</style><polyline class="st0" points="80.26,120.2 200.13,181.2 303.79,276.95 280.5,381.2 380.23,482.65 500.23,400.65 540.23,300.65 480.23,200.65 605.49,130.76 705.23,230.65 775.85,340.01 740.49,440.99 880.23,488.65 945.15,395.15 990.13,290.67 1090.13,203.67 1180.26,120.2 1300.13,181.2 1403.79,276.95 1380.5,381.2 1480.23,482.65 1600.23,400.65 1640.23,300.65 1580.23,200.65 1705.49,130.76 1805.23,230.65 1880.85,350.01 1840.49,441.99 2000.23,488.65 2045.15,395.15 2090.13,290.67 2190.13,203.67 2295.26,300.2"/></svg>